<svg id="rqjyrgmexk-Calque_1" class="logo__img wb-footer__img" xmlns="http://www.w3.org/2000/svg" version="1.1" viewBox="0 0 150 50"><defs><style>.rqjyrgmexk-st0{fill:#9fc9ec}.rqjyrgmexk-st1{fill:#fffbea}</style></defs><g><path class="rqjyrgmexk-st1" d="M67.25,35.39c-2.31-.03-4.7-.36-6.91-1.52-2.79-1.46-4.52-3.72-5.15-6.81-.5-2.43-.45-4.84.34-7.18,1.16-3.45,3.71-5.47,7.12-6.43,2.87-.81,5.79-.81,8.71-.21,5.29,1.08,8.38,4.73,8.53,10.12.05,1.65-.05,3.28-.54,4.86-1,3.26-3.26,5.26-6.42,6.35-1.8.62-3.67.8-5.7.83h0ZM70.5,29.52c-.32-3.88-.96-7.4-1.81-10.87-.17-.7-.43-1.39-.73-2.05-.4-.85-1.13-1.22-1.96-1.1-.81.12-1.45.72-1.6,1.6-.09.47-.12.97-.1,1.45.13,3.28.81,6.49,1.49,9.68.24,1.14.59,2.27,1,3.36.35.91,1.05,1.26,1.92,1.15.85-.1,1.45-.62,1.64-1.55.13-.65.13-1.32.16-1.67h0Z"></path><path class="rqjyrgmexk-st1" d="M92.11,16.36c2.42-3.6,5.92-3.98,9.68-3.49,2.1.27,3.92,1.2,5.33,2.83,1.38,1.59,1.64,3.95.62,5.7-.15.25-.32.49-.52.7-1.54,1.69-5.42,1.99-7.22.57-.78-.62-1.19-1.43-1.22-2.42-.03-.83-.02-1.66-.09-2.49-.06-.74-.06-1.6-.91-1.89-.96-.33-1.87-.05-2.57.68-.98,1.02-1.63,2.25-1.76,3.64-.19,2-.23,4.01-.29,6.03-.04,1.43.02,2.87-.01,4.3-.02,1.02.39,1.76,1.24,2.29.19.12.38.25.58.37.5.31.72.73.56,1.32-.16.61-.59.87-1.2.87-1.48,0-2.95,0-4.43,0-2.81,0-5.61,0-8.42,0-.81,0-1.16-.28-1.3-.97-.1-.48.03-.86.46-1.13.35-.22.71-.44,1.07-.64.68-.38,1.02-.97,1.03-1.73.01-4.32.01-8.64,0-12.96,0-.72-.28-.93-1.15-.96-.88-.03-1.37-.35-1.58-1.05-.22-.71.04-1.45.72-1.74,2.82-1.2,5.75-1.58,8.78-1.06,1.55.26,2.35,1.21,2.53,2.74.02.14.05.29.09.52h0Z"></path><path class="rqjyrgmexk-st1" d="M135.82,26.44c0,1.06-.04,2.12,0,3.18.05,1.15-.33,2.14-1.1,2.95-1.95,2.07-4.35,3.01-7.19,2.65-1.95-.25-3.24-1.46-4.09-3.19-1.39-2.84-.61-6.12,1.97-7.45,1.07-.55,2.37-.72,3.59-.88,1.92-.26,3.75-.67,5.38-1.77.76-.51,1.4-.13,1.41.79.01,1.25,0,2.49,0,3.74h0Z"></path><path class="rqjyrgmexk-st1" d="M145.76,35.32c-1.18-.01-2.63.07-3.79-.16-2.16-.43-3.12-1.66-3.14-3.86-.02-3.51,0-7.02-.01-10.53,0-1.29-.04-2.58-.55-3.8-.38-.92-1.04-1.43-2.04-1.48-1.07-.05-2.07.08-2.57,1.21-.27.6-.51,1.23-.71,1.86-.24.78-.75,1.3-1.48,1.58-1.5.56-3.02.59-4.49-.07-1.59-.71-2-2.26-1.01-3.71.69-1,1.69-1.59,2.78-2.03,3.23-1.3,6.6-1.4,10.01-1.16,2.3.16,4.51.68,6.56,1.8,2.78,1.51,4.08,3.89,4.15,6.96.06,2.78-.01,5.57,0,8.35,0,.6.01,1.31-.05,1.91-.24,2.21-1.37,3.16-3.66,3.14h0Z"></path><path class="rqjyrgmexk-st0" d="M13.75,26.36h0c0-1.26,0-2.53,0-3.8,0-.93-.67-1.32-1.43-.8-1.66,1.12-3.52,1.53-5.47,1.8-1.24.17-2.56.34-3.65.9-2.63,1.35-3.41,4.68-2,7.56.86,1.76,2.17,2.99,4.15,3.25,2.88.37,5.32-.58,7.3-2.69.78-.83,1.17-1.83,1.12-3-.05-1.07,0-2.15,0-3.22h0Z"></path><path class="rqjyrgmexk-st1" d="M52.51,27.55c-.94-.03-1.68.34-2.3.9-1.02.91-2.03,1.84-3,2.8-1.86,1.82-4.27,1.68-6.77,1.54.13-.21.22-.36.33-.5,2.98-4.22,5.97-8.43,8.94-12.65.9-1.27,1.84-2.52,2.62-3.84.72-1.22.57-2.77-.96-2.77h-18.62c-1.19,0-1.57.2-1.96,1.14-.53,1.3-1.44,3.44-1.9,4.76-.43,1.24.39,2,1.84,1.79,1.24-.18,2.04-.91,2.82-1.68.67-.67,1.33-1.35,2.03-1.99.69-.62,1.54-1.04,2.54-1.09.96-.05,1.92-.01,3-.01-.11.2-.16.29-.22.38-3.74,5.21-7.49,10.41-11.22,15.62-.26.37-.58.62-1.13.6-.61-.02-.96-.27-1.12-.82-.05-.16-.07-.43-.08-.6-.03-1.1-.07-2.21-.07-3.31-.01-2.29.09-4.59-.03-6.87-.13-2.54-1.31-4.56-3.49-5.94-1.69-1.07-3.57-1.65-5.53-1.95-2.18-.33-4.37-.33-6.56-.15-1.82.16-3.6.51-5.26,1.29-.94.43-1.8.97-2.4,1.84-1.01,1.47-.61,2.97,1,3.69,1.37.61,2.79.63,4.21.15.91-.31,1.5-.89,1.76-1.85.18-.65.46-1.29.78-1.88.18-.32.51-.66.84-.76,1.76-.54,3.38-.2,3.8,1.91.23,1.18.32,2.41.33,3.62.05,3.41,0,6.82.03,10.23,0,1.75.84,3.27,2.5,3.83,1.1.37,2.24.5,3.39.5,1.92,0,4.06-.07,6.3-.07.71,0,1.35,0,1.94,0,6.57,0,13.14,0,19.71,0,.81,0,1.34-.7,1.56-1.36.57-1.68,1.13-3.36,1.64-5.05.28-.91-.22-1.41-1.29-1.44h0Z"></path><path class="rqjyrgmexk-st1" d="M111.03,34.56V15.85c0-.81.41-1.48,1.23-2,.82-.52,1.78-.78,2.88-.78h3.78c.38,0,.66.08.85.22.22.15.33.34.33.58v20.69c0,.21-.11.4-.33.54-.19.17-.47.26-.85.26h-6.71c-.32,0-.59-.08-.83-.24-.24-.16-.36-.35-.36-.56h0Z"></path><path class="rqjyrgmexk-st1" d="M110.9,7.83c0-.78.03-1.56,0-2.34-.04-.85.25-1.58.81-2.18,1.44-1.53,3.21-2.23,5.3-1.95,1.44.19,2.39,1.08,3.02,2.36,1.03,2.09.45,4.52-1.45,5.49-.79.4-1.75.53-2.65.65-1.41.19-2.77.5-3.97,1.31-.56.38-1.04.09-1.04-.58,0-.92,0-1.84,0-2.76h0Z"></path></g><g><path class="rqjyrgmexk-st1" d="M21.31,46.2h1.9v.66h-1.9v1.76h-.83v-4.17h2.95v.65h-2.11v1.1h0Z"></path><path class="rqjyrgmexk-st1" d="M24.04,48.62v-4.17h.83v4.17h-.83Z"></path><path class="rqjyrgmexk-st1" d="M29.07,47.37c0,.77-.59,1.14-1.14,1.22-.21.02-.34.02-.58.02h-1.52v-4.17h1.49c.21,0,.33,0,.54.02.68.09,1.05.48,1.05,1.04,0,.43-.23.71-.65.86.54.14.8.47.8,1h0ZM26.66,46.16h.63c.1,0,.2,0,.3-.02.3-.05.45-.22.45-.52s-.19-.47-.47-.5c-.1-.01-.21-.02-.3-.02h-.6v1.06h0ZM28.19,47.38c0-.39-.24-.55-.54-.58-.1-.01-.2-.02-.3-.02h-.69v1.18h.72c.1,0,.2,0,.28,0,.29-.02.53-.22.53-.57h0Z"></path><path class="rqjyrgmexk-st1" d="M32.84,48.62h-3.01v-4.17h2.95v.65h-2.11v1.1h1.96v.66h-1.96v1.1h2.17v.66h0Z"></path><path class="rqjyrgmexk-st1" d="M36.93,48.62h-.91c-.1-.28-.16-.54-.21-.93-.05-.45-.22-.72-.56-.74-.12,0-.22,0-.33,0h-.48v1.68h-.83v-4.17h1.52c.24,0,.4,0,.6.03.6.07,1.09.39,1.09,1.11,0,.54-.32.88-.81,1.02.41.16.57.5.62.97.05.51.13.81.3,1.05h0ZM35.02,46.32c.15,0,.25,0,.34,0,.33-.03.6-.19.6-.6s-.22-.55-.55-.59c-.1-.01-.2-.02-.35-.02h-.61v1.21h.57Z"></path><path class="rqjyrgmexk-st1" d="M41.17,46.49v2.13h-.67l-.05-.68-.19.42c-.24.23-.56.34-1.02.34-1.16,0-1.89-.82-1.89-2.14s.89-2.19,2.05-2.19,1.71.62,1.8,1.44v.06s-.83,0-.83,0v-.06c-.12-.51-.43-.81-.98-.81-.68,0-1.16.57-1.16,1.52,0,1.04.48,1.57,1.14,1.57.54,0,.92-.35,1-.94h-.88v-.65h1.68Z"></path><path class="rqjyrgmexk-st1" d="M45.09,48.62h-3.01v-4.17h.83v3.47h2.17v.69h0Z"></path><path class="rqjyrgmexk-st1" d="M46.78,47.36l-.42,1.26h-.89l1.5-4.17h1.05l1.47,4.17h-.91l-.41-1.26h-1.4ZM46.99,46.7h.98l-.48-1.54-.5,1.54h0Z"></path><path class="rqjyrgmexk-st1" d="M52.92,45.68h-.85c-.05-.42-.28-.69-.72-.69-.33,0-.59.16-.59.5s.22.53.89.68c.92.21,1.33.63,1.33,1.3,0,.78-.72,1.23-1.54,1.23-1,0-1.65-.44-1.73-1.32h.85c.09.46.44.69.86.69.38,0,.68-.21.68-.53,0-.35-.22-.56-.83-.7-.85-.21-1.39-.5-1.39-1.27s.69-1.22,1.49-1.22c1,0,1.45.57,1.54,1.31h0Z"></path><path class="rqjyrgmexk-st1" d="M56.67,45.68h-.85c-.05-.42-.28-.69-.72-.69-.33,0-.59.16-.59.5s.22.53.89.68c.92.21,1.33.63,1.33,1.3,0,.78-.72,1.23-1.54,1.23-1,0-1.65-.44-1.73-1.32h.85c.09.46.44.69.86.69.38,0,.68-.21.68-.53,0-.35-.22-.56-.83-.7-.85-.21-1.39-.5-1.39-1.27s.69-1.22,1.49-1.22c1,0,1.45.57,1.54,1.31h0Z"></path><path class="rqjyrgmexk-st1" d="M61.95,45.75c0,.77-.52,1.2-1.12,1.27-.21.02-.36.03-.6.03h-.61v1.57h-.83v-4.17h1.44c.24,0,.4,0,.6.03.63.07,1.12.5,1.12,1.27ZM61.07,45.75c0-.39-.21-.58-.5-.62-.09-.01-.22-.02-.37-.02h-.6v1.28h.6c.15,0,.28,0,.37-.02.29-.04.5-.23.5-.62h0Z"></path><path class="rqjyrgmexk-st1" d="M66.5,46.53c0,1.3-.78,2.17-2.06,2.17s-2.06-.86-2.06-2.17.77-2.17,2.06-2.17,2.06.86,2.06,2.17ZM65.63,46.53c0-.98-.45-1.55-1.18-1.55s-1.19.57-1.19,1.55.45,1.55,1.19,1.55,1.18-.57,1.18-1.55Z"></path><path class="rqjyrgmexk-st1" d="M71.16,46.53c0,1.3-.78,2.17-2.06,2.17s-2.06-.86-2.06-2.17.77-2.17,2.06-2.17,2.06.86,2.06,2.17ZM70.28,46.53c0-.98-.45-1.55-1.18-1.55s-1.19.57-1.19,1.55.45,1.55,1.19,1.55,1.18-.57,1.18-1.55Z"></path><path class="rqjyrgmexk-st1" d="M74.92,48.62h-3.01v-4.17h.83v3.47h2.17v.69h0Z"></path><path class="rqjyrgmexk-st1" d="M78.54,45.68h-.85c-.05-.42-.28-.69-.72-.69-.33,0-.59.16-.59.5s.22.53.89.68c.92.21,1.33.63,1.33,1.3,0,.78-.72,1.23-1.54,1.23-1,0-1.65-.44-1.73-1.32h.85c.09.46.44.69.86.69.38,0,.68-.21.68-.53,0-.35-.22-.56-.83-.7-.85-.21-1.39-.5-1.39-1.27s.69-1.22,1.49-1.22c1,0,1.45.57,1.54,1.31h0Z"></path><path class="rqjyrgmexk-st1" d="M85.13,48.62h-.83v-1.93c0-.43,0-.99.01-1.43-.1.43-.25.99-.39,1.42l-.59,1.93h-.91l-.6-1.94c-.13-.42-.28-.98-.37-1.41.01.43.01.98.01,1.42v1.93h-.83v-4.17h1.32l.94,3.4.94-3.4h1.29v4.17h0Z"></path><path class="rqjyrgmexk-st1" d="M86.95,47.36l-.42,1.26h-.89l1.5-4.17h1.05l1.47,4.17h-.91l-.41-1.26h-1.4ZM87.17,46.7h.98l-.48-1.54-.5,1.54Z"></path><path class="rqjyrgmexk-st1" d="M92.72,48.62l-1.71-3.16c.02.45.03.93.03,1.28v1.88h-.83v-4.17h1.11l1.75,3.22c-.02-.45-.03-.95-.03-1.31v-1.91h.83v4.17s-1.14,0-1.14,0h0Z"></path><path class="rqjyrgmexk-st1" d="M98.23,46.92c0,.18,0,.3-.01.49-.05.69-.54,1.29-1.7,1.29s-1.65-.6-1.71-1.29c-.01-.19-.01-.31-.01-.49v-2.47h.83v2.55c0,.12,0,.21.01.3.04.48.33.77.88.77s.84-.3.88-.77c.01-.09.01-.18.01-.3v-2.55h.83v2.47h0Z"></path><path class="rqjyrgmexk-st1" d="M99.99,46.2h1.9v.66h-1.9v1.76h-.83v-4.17h2.95v.65h-2.11v1.1h0Z"></path><path class="rqjyrgmexk-st1" d="M103.35,47.36l-.42,1.26h-.89l1.5-4.17h1.05l1.47,4.17h-.91l-.41-1.26h-1.4ZM103.56,46.7h.98l-.48-1.54-.5,1.54Z"></path><path class="rqjyrgmexk-st1" d="M110.04,45.8v.06s-.83,0-.83,0v-.06c-.12-.51-.43-.81-.98-.81-.67,0-1.12.57-1.12,1.52,0,1.04.48,1.57,1.11,1.57.54,0,.86-.33.97-.84v-.06h.84v.06c-.1.89-.77,1.47-1.84,1.47-1.16,0-1.96-.81-1.96-2.14s.86-2.19,2.02-2.19,1.71.62,1.8,1.44h0Z"></path><path class="rqjyrgmexk-st1" d="M112.65,45.1v3.51h-.83v-3.51h-1.41v-.65h3.66v.65h-1.41Z"></path><path class="rqjyrgmexk-st1" d="M118,46.92c0,.18,0,.3-.01.49-.05.69-.54,1.29-1.7,1.29s-1.65-.6-1.71-1.29c-.01-.19-.01-.31-.01-.49v-2.47h.83v2.55c0,.12,0,.21.01.3.04.48.33.77.88.77s.84-.3.88-.77c.01-.09.01-.18.01-.3v-2.55h.83v2.47h0Z"></path><path class="rqjyrgmexk-st1" d="M122.25,48.62h-.91c-.1-.28-.16-.54-.21-.93-.05-.45-.22-.72-.56-.74-.12,0-.22,0-.33,0h-.48v1.68h-.83v-4.17h1.52c.24,0,.4,0,.6.03.6.07,1.09.39,1.09,1.11,0,.54-.32.88-.81,1.02.41.16.57.5.62.97.05.51.13.81.3,1.05h0ZM120.33,46.32c.15,0,.25,0,.34,0,.33-.03.6-.19.6-.6s-.22-.55-.55-.59c-.1-.01-.2-.02-.35-.02h-.61v1.21h.57Z"></path><path class="rqjyrgmexk-st1" d="M125.93,48.62h-3.01v-4.17h2.95v.65h-2.11v1.1h1.96v.66h-1.96v1.1h2.17v.66h0Z"></path><path class="rqjyrgmexk-st1" d="M130.03,48.62h-.91c-.1-.28-.16-.54-.21-.93-.05-.45-.22-.72-.56-.74-.12,0-.22,0-.33,0h-.48v1.68h-.83v-4.17h1.52c.24,0,.4,0,.6.03.6.07,1.09.39,1.09,1.11,0,.54-.32.88-.81,1.02.41.16.57.5.62.97.05.51.13.81.3,1.05h0ZM128.11,46.32c.15,0,.25,0,.34,0,.33-.03.6-.19.6-.6s-.22-.55-.55-.59c-.1-.01-.2-.02-.35-.02h-.61v1.21h.57Z"></path></g></svg>