<svg
  xmlns="http://www.w3.org/2000/svg"
  viewBox="0 0 200 53"
  fill="none"
>
  <path
    fill="#FFFFFF"
    d="M61.437 11.995v-.066C61.437 5.246 66.681 0 73.79 0c4.032 0 6.884 1.246 9.31 3.342l-3.735 4.492c-1.641-1.378-3.281-2.163-5.54-2.163-3.31 0-5.868 2.785-5.868 6.292v.066c0 3.7 2.59 6.357 6.228 6.357 1.54 0 2.72-.327 3.668-.95v-2.787h-4.521V9.996h10.554v10.323c-2.424 2-5.802 3.54-9.965 3.54-7.144 0-12.484-4.915-12.484-11.864M96.67 11.471c2.164 0 3.408-1.048 3.408-2.72v-.066c0-1.8-1.31-2.719-3.44-2.719h-4.161v5.505h4.193zM86.12.461h10.845c3.508 0 5.932.917 7.472 2.489 1.345 1.311 2.034 3.082 2.034 5.344v.065c0 3.505-1.869 5.832-4.721 7.045l5.474 7.996h-7.342l-4.62-6.948h-2.786V23.4H86.12V.462zM125.81 11.995v-.066c0-3.31-2.393-6.192-5.899-6.192-3.475 0-5.802 2.817-5.802 6.127v.065c0 3.311 2.394 6.195 5.868 6.195 3.506 0 5.833-2.817 5.833-6.13m-18.222 0v-.065C107.588 5.344 112.896 0 119.977 0c7.077 0 12.321 5.277 12.321 11.864v.065c0 6.588-5.31 11.93-12.387 11.93-7.08 0-12.323-5.277-12.323-11.864M134.006 13.339V.462h6.456v12.746c0 3.31 1.671 4.883 4.228 4.883 2.555 0 4.228-1.508 4.228-4.718V.462h6.457v12.713c0 7.408-4.228 10.65-10.75 10.65s-10.619-3.307-10.619-10.486M167.208 11.864c2.26 0 3.637-1.179 3.637-2.984v-.062c0-1.969-1.376-3.017-3.668-3.017h-2.984v6.063h3.015zM157.834.462h9.832c5.803 0 9.538 2.98 9.538 8.06v.066c0 5.407-4.164 8.257-9.865 8.257h-3.146V23.4h-6.359V.462zM178.583.461L197.036.461 197.036 5.869 184.876 5.869 184.876 9.341 195.889 9.341 195.889 14.356 184.876 14.356 184.876 17.994 197.2 17.994 197.2 23.4 178.583 23.4z"
    transform="translate(-620 -16) translate(620 16)"
  />

  <path
    fill="#FFFFFF"
    d="M74.672 39.248c2.488 0 3.923-1.208 3.923-3.133v-.075c0-2.073-1.508-3.13-3.96-3.13h-4.789v6.338h4.826zM62.53 26.575h12.483c4.034 0 6.824 1.055 8.599 2.866 1.547 1.51 2.337 3.546 2.337 6.148v.075c0 4.034-2.149 6.713-5.429 8.108l6.296 9.204h-8.448l-5.316-7.996h-3.206v7.996H62.53v-26.4zM88.287 52.976L95.64 52.976 95.64 26.575 88.287 26.575zM98.056 39.85v-.075c0-7.693 5.92-13.726 13.914-13.726 5.394 0 8.864 2.262 11.202 5.505l-5.508 4.26c-1.507-1.885-3.242-3.091-5.768-3.091-3.695 0-6.298 3.128-6.298 6.975v.077c0 3.96 2.603 7.052 6.298 7.052 2.752 0 4.375-1.28 5.958-3.204l5.508 3.923c-2.489 3.43-5.849 5.957-11.692 5.957-7.544 0-13.614-5.77-13.614-13.653M124.979 26.575L132.295 26.575 132.295 36.456 141.689 36.456 141.689 26.575 149.003 26.575 149.003 52.976 141.689 52.976 141.689 42.945 132.295 42.945 132.295 52.976 124.979 52.976zM152.173 26.575L173.405 26.575 173.405 32.799 159.415 32.799 159.415 36.795 172.086 36.795 172.086 42.567 159.415 42.567 159.415 46.751 173.595 46.751 173.595 52.976 152.173 52.976zM187.96 39.248c2.49 0 3.923-1.208 3.923-3.133v-.075c0-2.073-1.507-3.13-3.959-3.13h-4.79v6.338h4.827zm-12.142-12.673h12.484c4.034 0 6.827 1.055 8.599 2.866 1.547 1.51 2.337 3.546 2.337 6.148v.075c0 4.034-2.152 6.713-5.431 8.108l6.297 9.204h-8.447l-5.316-7.996h-3.206v7.996h-7.317v-26.4zM29.401 43.757L22.484 33.36h-4.17v10.398H8.8V9.43h16.234c5.247 0 8.878 1.371 11.18 3.726 2.013 1.963 3.039 4.611 3.039 7.993v.097c0 5.25-2.792 8.731-7.058 10.546l8.189 11.965H29.4zm13.668 0v-9.563h9.306V6.8c0-3.438-2.814-6.255-6.254-6.255H6.254C2.814.545 0 3.362 0 6.8v39.872c0 3.436 2.814 6.25 6.254 6.25H46.12c3.44 0 6.254-2.814 6.254-6.25v-2.915H43.07z"
    transform="translate(-620 -16) translate(620 16)"
  />

  <path
    fill="#FFFFFF"
    d="M24.542 17.669h-6.228v8.238h6.277c3.236 0 5.1-1.57 5.1-4.07v-.1c0-2.697-1.958-4.068-5.149-4.068"
    transform="translate(-620 -16) translate(620 16)"
  />
</svg>