<?xml version="1.0" encoding="UTF-8"?>
<svg width="216px" height="82px" xmlns="http://www.w3.org/2000/svg" id="Layer_1" data-name="Layer 1" version="1.1" viewBox="0 0 365.239 139.512">
  <path d="M13.852,135.036c-.757,2.642-2.686,4.594-6.201,4.594-4.686,0-7.098-3.652-7.098-8.177,0-4.341,2.388-8.27,7.143-8.27,3.607,0,5.652,2.021,6.156,4.71h-1.631c-.668-1.929-1.929-3.285-4.594-3.285-3.789,0-5.351,3.446-5.351,6.821,0,3.309,1.514,6.776,5.444,6.776,2.549,0,3.768-1.377,4.478-3.169h1.655Z" fill="#FFFFFF" stroke-width="0"></path>
  <path d="M23.802,131.362c0,3.583,1.929,6.866,5.581,6.866,3.95,0,5.584-3.238,5.584-6.866,0-3.607-1.839-6.732-5.56-6.732-3.882,0-5.605,3.193-5.605,6.732M36.711,131.314c0,4.409-2.412,8.363-7.396,8.363-4.615,0-7.235-3.652-7.235-8.246s2.597-8.246,7.396-8.246c4.457,0,7.235,3.422,7.235,8.13" fill="#FFFFFF" stroke-width="0"></path>
  <path d="M45.903,139.446v-16.033h2.275c2.412,3.813,7.879,12.313,8.842,14.057h.024c-.14-2.203-.116-4.639-.116-7.256v-6.8h1.586v16.033h-2.114c-2.275-3.604-7.879-12.587-8.959-14.378h-.048c.116,1.977.116,4.502.116,7.396v6.982h-1.607Z" fill="#FFFFFF" stroke-width="0"></path>
  <polygon points="72.093 124.861 66.81 124.861 66.81 123.413 79.051 123.413 79.051 124.861 73.748 124.861 73.748 139.446 72.093 139.446 72.093 124.861" fill="#FFFFFF" stroke-width="0"></polygon>
  <polygon points="96.882 131.728 88.797 131.728 88.797 138 97.663 138 97.43 139.446 87.163 139.446 87.163 123.413 97.272 123.413 97.272 124.862 88.797 124.862 88.797 130.282 96.882 130.282 96.882 131.728" fill="#FFFFFF" stroke-width="0"></polygon>
  <path d="M120.268,132.326c0-3.079.024-6.088.092-7.742h-.069c-.668,2.367-3.628,9.808-5.581,14.861h-1.517c-1.47-3.995-4.526-12.309-5.259-14.882h-.048c.116,1.836.161,5.512.161,8.246v6.636h-1.586v-16.033h2.46c2.021,5.262,4.546,12.107,5.122,14.012h.045c.37-1.33,3.309-8.887,5.399-14.012h2.388v16.033h-1.607v-7.119Z" fill="#FFFFFF" stroke-width="0"></path>
  <path d="M133.849,131.2h4.111c2.412,0,3.491-1.24,3.491-3.19,0-2.048-1.377-3.172-3.399-3.172h-4.204v6.362ZM132.194,123.413h5.903c3.008,0,5.077,1.675,5.077,4.549,0,3.008-2.114,4.687-5.238,4.687h-4.087v6.797h-1.655v-16.033Z" fill="#FFFFFF" stroke-width="0"></path>
  <path d="M153.123,131.362c0,3.583,1.929,6.866,5.581,6.866,3.953,0,5.584-3.238,5.584-6.866,0-3.607-1.839-6.732-5.56-6.732-3.882,0-5.605,3.193-5.605,6.732M166.032,131.314c0,4.409-2.412,8.363-7.396,8.363-4.618,0-7.235-3.652-7.235-8.246s2.597-8.246,7.396-8.246c4.457,0,7.235,3.422,7.235,8.13" fill="#FFFFFF" stroke-width="0"></path>
  <path d="M176.878,130.717h3.697c2.641,0,3.837-.987,3.837-2.963,0-1.86-1.195-2.916-3.539-2.916h-3.995v5.879ZM176.878,132.142v7.304h-1.655v-16.033h5.995c3.217,0,4.916,1.747,4.916,4.248,0,2.069-1.195,3.354-2.871,3.768,1.494.367,2.618,1.401,2.618,4.156v.644c0,1.103-.089,2.573.209,3.217h-1.634c-.298-.689-.25-1.953-.25-3.398v-.37c0-2.48-.713-3.536-3.7-3.536h-3.628Z" fill="#FFFFFF" stroke-width="0"></path>
  <path d="M203.896,132.784c-1.678-4.523-2.552-6.773-2.874-7.924h-.021c-.391,1.288-1.401,4.066-2.734,7.924h5.629ZM197.785,134.233l-1.905,5.214h-1.655l5.81-16.033h1.997l6.04,16.033h-1.765l-1.932-5.214h-6.592Z" fill="#FFFFFF" stroke-width="0"></path>
  <path d="M218.208,130.717h3.7c2.641,0,3.834-.987,3.834-2.963,0-1.86-1.192-2.916-3.536-2.916h-3.998v5.879ZM218.208,132.142v7.304h-1.652v-16.033h5.995c3.214,0,4.913,1.747,4.913,4.248,0,2.069-1.192,3.354-2.871,3.768,1.494.367,2.62,1.401,2.62,4.156v.644c0,1.103-.092,2.573.206,3.217h-1.631c-.298-.689-.253-1.953-.253-3.398v-.37c0-2.48-.713-3.536-3.697-3.536h-3.631Z" fill="#FFFFFF" stroke-width="0"></path>
  <path d="M240.721,139.446v-5.95c0-.158-.021-.319-.092-.411l-5.697-9.671h1.908c1.538,2.665,4.111,7.146,4.824,8.431.689-1.285,3.306-5.742,4.937-8.431h1.771l-5.903,9.74c-.045.092-.069.185-.069.39v5.903h-1.678Z" fill="#FFFFFF" stroke-width="0"></path>
  <path d="M269.601,131.2h4.111c2.412,0,3.491-1.24,3.491-3.19,0-2.048-1.377-3.172-3.399-3.172h-4.204v6.362ZM267.947,123.413h5.903c3.008,0,5.077,1.675,5.077,4.549,0,3.008-2.114,4.687-5.235,4.687h-4.09v6.797h-1.655v-16.033Z" fill="#FFFFFF" stroke-width="0"></path>
  <path d="M288.875,131.362c0,3.583,1.932,6.866,5.584,6.866,3.95,0,5.581-3.238,5.581-6.866,0-3.607-1.836-6.732-5.557-6.732-3.885,0-5.608,3.193-5.608,6.732M301.784,131.314c0,4.409-2.412,8.363-7.396,8.363-4.615,0-7.232-3.652-7.232-8.246s2.594-8.246,7.393-8.246c4.457,0,7.235,3.422,7.235,8.13" fill="#FFFFFF" stroke-width="0"></path>
  <path d="M311.782,131.362c0,3.583,1.929,6.866,5.581,6.866,3.95,0,5.581-3.238,5.581-6.866,0-3.607-1.836-6.732-5.557-6.732-3.882,0-5.605,3.193-5.605,6.732M324.69,131.314c0,4.409-2.412,8.363-7.396,8.363-4.618,0-7.235-3.652-7.235-8.246s2.597-8.246,7.396-8.246c4.457,0,7.235,3.422,7.235,8.13" fill="#FFFFFF" stroke-width="0"></path>
  <polygon points="333.884 123.413 335.514 123.413 335.514 138 344.014 138 343.76 139.446 333.884 139.446 333.884 123.413" fill="#FFFFFF" stroke-width="0"></polygon>
  <path d="M353.112,135.06c.459,2.045,1.813,3.217,4.317,3.217,2.734,0,3.792-1.336,3.792-2.987,0-1.723-.781-2.734-4.183-3.563-3.56-.894-4.961-2.066-4.961-4.364,0-2.227,1.631-4.177,5.146-4.177,3.652,0,5.19,2.182,5.396,4.201h-1.675c-.346-1.583-1.354-2.802-3.789-2.802-2.161,0-3.354.99-3.354,2.665,0,1.631.987,2.275,3.882,2.987,4.549,1.127,5.283,2.916,5.283,4.916,0,2.457-1.813,4.478-5.629,4.478-4.019,0-5.602-2.275-5.924-4.57h1.699Z" fill="#FFFFFF" stroke-width="0"></path>
  <path d="M.623,1.998h21.817v39.162C25.937,24.795,35.587,1.017,49.993,1.017c16.364,0,15.663,17.065,15.663,37.486v2.656c3.497-16.364,13.147-40.142,27.553-40.142,16.224,0,15.523,17.065,15.523,37.486v34.684c0,3.497,6.156,4.054,9.093,4.335v1.398h-30.909v-1.398c3.497-.28,9.09-.838,9.09-4.335v-34.827c0-17.902.981-30.209-6.991-30.209-12.447,0-22.097,30.352-23.358,39.442v25.594c0,3.497,6.016,4.054,8.953,4.335v1.398h-30.769v-1.398c3.357-.28,8.95-.838,8.95-4.335v-34.827c0-17.902.981-30.209-6.991-30.209-12.45,0-22.1,30.352-23.358,39.442v25.594c0,3.497,6.156,4.054,9.09,4.335v1.398H.623v-1.398c3.497-.28,9.09-.838,9.09-4.335V7.59c0-3.494-5.593-3.774-9.09-4.195v-1.398Z" fill="#FFFFFF" stroke-width="0"></path>
  <path d="M165.656,77.802c18.743,0,23.635-21.679,23.915-36.085.42-16.644-7.551-39.439-27.69-39.439-18.743,0-23.915,23.495-23.915,35.942,0,16.504,7.692,39.582,27.69,39.582M124.539,41.717C124.539,19.62,142.301.32,164.819.32c21.539,0,38.041,16.224,38.041,37.62,0,22.517-17.482,41.818-40.557,41.818-20.842,0-37.763-16.641-37.763-38.041" fill="#FFFFFF" stroke-width="0"></path>
  <path d="M205.518,1.998h33.008v1.398c-2.239.28-10.071.28-8.532,4.618l19.438,54.682c1.261,3.497,2.099,5.175,4.758,5.175,2.796,0,4.054-1.398,5.316-5.315l18.32-53.844c1.538-4.197-6.293-5.035-8.529-5.315v-1.398h21.396v1.398c-3.637.42-9.37,1.261-10.768,5.315l-18.323,53.844c-4.615,13.427-7.131,16.784-12.867,16.784s-8.81-2.937-13.705-16.644l-19.721-54.682c-1.118-3.22-6.156-4.057-9.79-4.618v-1.398Z" fill="#FFFFFF" stroke-width="0"></path>
  <path d="M302.242,65.075c2.033,5.175,7.793,7.542,13.606,7.542,2.981,0,5.977-.623,8.491-1.81,5.175-2.239,12.307-6.714,15.804-10.067V26.754c0-18.042-8.392-23.778-16.924-23.638-7.271.14-13.425,3.637-15.944,7.832-.978,1.538.981,1.959,2.799,1.819,9.09-.978,17.482.841,18.32,7.835.701,5.313-1.956,11.606-13.007,19.998-11.048,8.392-16.221,16.504-13.144,24.476M301.541,42.417c6.433-4.338,26.014-12.169,25.033-21.259-.28-3.497-2.516-6.293-10.348-5.593-7.575.641-13.281,5.429-17.175,5.429-1.207,0-2.245-.462-3.103-1.655-3.777-5.175,3.494-15.663,22.654-18.323,2.62-.382,5.163-.578,7.608-.578,15.437,0,26.798,7.859,26.798,26.453,0,21.399.143,36.782.143,41.821,0,2.928,1.163,5.137,3.491,5.137,1.786,0,4.257-1.3,7.414-4.579l1.398.978s-8.532,9.653-17.482,9.653-7.832-9.093-7.832-16.924c-5.456,4.755-17.342,16.781-34.266,16.644-8.669,0-16.504-3.357-18.042-12.029-1.956-11.886,5.596-19.581,13.708-25.174" fill="#FFFFFF" stroke-width="0"></path>
</svg>
