<svg class="logo__img wb-header__img" width="132px" height="22px" xmlns="http://www.w3.org/2000/svg" xmlns:xlink="http://www.w3.org/1999/xlink" viewBox="0 0 132 22" version="1.1"><defs><polygon id="hjpwixnmzb-path-1" points="0 0 40 0 40 22 0 22"></polygon><polygon id="hjpwixnmzb-path-3" points="0 0 84 0 84 22 0 22"></polygon></defs><g id="hjpwixnmzb-atomes/logos/rinox-horizontal" stroke="none" stroke-width="1" fill="none" fill-rule="evenodd"><g id="hjpwixnmzb-Group-3"><mask id="hjpwixnmzb-mask-2" fill="white"><use xlink:href="#hjpwixnmzb-path-1"></use></mask><g id="hjpwixnmzb-Clip-2"></g><path d="M37.6260964,9.82571376 C36.5316154,10.4556386 36.4772556,10.853867 36.4772556,10.853867 C36.3892712,11.4642981 35.5492164,12.0847546 35.5492164,12.0847546 C34.8879324,13.0232368 33.2448098,12.3938689 33.2448098,12.3938689 C32.5414951,11.8424758 30.4578901,11.3278422 30.4578901,11.3278422 C29.4878201,10.8755885 28.9901759,10.0234355 28.9901759,10.0234355 C28.7351893,10.5670312 27.1918197,11.0231836 27.1918197,11.0231836 C27.1890177,11.0749812 27.1357787,11.5612096 27.1357787,11.5612096 C27.0791773,11.9828304 26.9990386,12.3827297 26.9166583,12.7274896 C26.9194604,13.019895 26.9783034,13.3033891 27.1570743,13.4721488 C27.4535313,13.7517441 27.5639321,13.5974654 27.826204,13.9667317 C28.1153756,14.3738714 28.4146347,14.7943783 28.8119655,15.1630876 C29.6049458,15.9010633 30.8277608,17.413774 30.3099418,18.4937248 C30.0762508,18.9766115 30.0297367,19.2885106 30.1709601,19.4210677 C30.1709601,19.4210677 30.1715205,19.4216247 30.1844099,19.4338779 L30.1860912,19.4344348 C30.3558955,19.6026376 30.3020961,20.5517021 30.031418,20.8457784 C29.7988478,21.0975256 29.3544425,20.9215253 28.555858,20.2359042 C27.9035406,19.6739288 27.6334229,19.2116497 27.7298135,18.818434 C27.7645589,18.6752946 27.8474996,18.5622312 27.9455714,18.4809146 C27.9052218,18.4179778 27.8620703,18.3461297 27.8144354,18.265927 C27.6636851,18.0108381 27.4333565,17.6254199 27.2573877,17.5307362 C27.1570743,17.4783817 27.0646066,17.4850653 26.8807921,17.503445 C26.4246182,17.5513438 25.7381158,17.2377738 24.5181028,16.1238483 C23.9179036,15.5741261 23.6763668,15.4655184 23.5351434,15.0544799 C23.2734319,15.0884546 22.9601626,15.008252 22.8990779,14.962581 C22.7208675,15.0667331 22.549382,15.156961 22.3924671,15.2232396 C21.1971123,15.7217213 20.5078078,17.5713945 20.222559,18.4190918 C19.9361894,19.267346 19.5982621,19.9273469 19.8341948,20.1841067 C20.0690066,20.4403095 20.7050721,21.1081078 20.6086816,21.3375765 C20.540872,21.4957539 19.4357431,21.6784377 18.6808707,21.7842606 C18.4415755,21.8416278 18.238707,21.8800582 18.073386,21.8644632 C18.0431239,21.8672481 17.8761217,21.80821 17.8167182,21.7586403 C17.7578751,21.7068428 17.6906259,21.5820831 17.7511502,21.3843614 L17.749469,21.3877031 C17.7982247,21.165475 17.4042563,20.5361071 17.4042563,20.5361071 C16.8976455,19.2355991 18.0347177,16.5755451 18.0347177,16.5755451 C18.235905,16.1672914 19.0361707,15.2845055 18.9022327,14.544302 C18.8204128,14.5108843 18.7710967,14.4897197 18.7710967,14.4897197 C16.0615136,16.2085067 10.9853184,15.1513914 10.9853184,15.1513914 C10.9662644,15.1675433 10.9477709,15.1831383 10.928717,15.1976193 C11.0682591,15.7128098 10.9926037,16.2803549 10.9275961,16.7482036 C10.8889278,17.0277989 10.8513804,17.2934701 10.8698739,17.4794956 C10.9595395,18.3661803 11.249832,18.9710418 11.8444272,19.4990425 C12.363367,19.9618785 12.500107,20.1384357 12.7265127,20.4291703 C12.8301886,20.5622844 12.9579621,20.7271453 13.1552265,20.9605127 C13.3636991,21.2083611 13.3345578,21.3988424 13.2729126,21.5152476 C13.0745274,21.8917544 12.3174133,21.8934253 10.9937245,21.7625391 C10.9018173,21.7541846 10.822239,21.7469441 10.7678792,21.7430454 C10.6585993,21.734134 10.5347486,21.7307922 10.4153813,21.7285643 C9.9933924,21.7196529 9.66162959,21.7124124 9.53609771,21.4818298 C9.50135229,21.4161082 9.4582007,21.2785384 9.56804109,21.1042091 C9.56635986,21.1047661 9.56635986,21.106437 9.56635986,21.106437 C9.67003574,20.9048164 9.39095148,19.7067896 8.90731752,19.4177259 C8.18663006,18.9877507 8.09023951,17.5524578 8.12890781,17.2071409 C8.13619314,17.0768116 7.97759707,16.5616211 7.76632244,15.9656709 C7.08822615,16.2346839 7.09158861,16.4825323 6.54574912,16.5482539 C5.70849634,16.6496212 4.76868851,17.4510905 3.75154408,18.9309405 C3.63665999,19.0980293 3.52457796,19.2511941 3.4164188,19.3999031 C3.19337556,19.7051187 2.85544823,20.1679548 2.91148925,20.2804612 L2.94287222,20.343398 C3.34020302,21.1276015 3.51729263,21.6015768 3.31274292,21.8572227 C3.24661452,21.9374254 3.04766892,22.1847168 0.432234716,21.7497289 C0.393006005,21.7430454 0.272517822,21.7229947 0.199104091,21.61383 C0.127371591,21.5029944 0.154271278,21.389374 0.173325224,21.3125132 C0.200224911,21.1972219 0.247859775,21.0022849 0.0909449307,20.5895755 C-0.442565539,19.1954978 1.53568232,16.5738742 1.76320884,16.2803549 L1.76881294,16.2731144 L1.77441704,16.2658738 C1.86240144,16.1684054 1.98905413,16.0609116 2.13756282,15.935038 C2.60774695,15.5340248 3.25389986,14.9859735 3.08297476,14.4351373 C3.06223958,14.3710866 3.04486687,14.3048081 3.02805456,14.2396434 C2.97033232,14.1388332 1.8383038,11.7533618 2.09721329,7.68252116 C2.35444155,3.61279447 6.20333851,2.01431142 6.20333851,2.01431142 C8.08743746,1.11704446 10.8917299,1.71299458 10.8917299,1.71299458 C13.3076581,2.50945129 14.4800361,2.23765348 14.4800361,2.23765348 C15.7639358,2.2671725 19.6503802,1.17274073 19.6503802,1.17274073 C22.6312019,-0.170653381 23.6718835,0.672031234 23.6718835,0.672031234 C25.7857506,0.33506878 27.2506628,2.13015967 27.2506628,2.13015967 C26.9844679,0.703221147 28.234743,-0.000222785093 28.234743,-0.000222785093 C29.6307247,1.37213339 29.0921705,2.12459004 29.0921705,2.12459004 C29.0361295,2.47547656 28.9184434,2.73167942 28.9184434,2.73167942 L29.4766119,2.67988189 C29.204813,1.05689248 30.7308098,0.615777998 30.7308098,0.615777998 C32.3341433,1.97365314 30.9555343,2.84028715 30.9555343,2.84028715 C31.4526181,2.95780629 32.2764211,4.18869393 32.2764211,4.18869393 C32.9545174,5.67411354 34.4480104,6.42322842 34.4480104,6.42322842 C35.4068722,6.907786 35.8210153,4.84646692 35.8210153,4.84646692 C36.1533385,4.41203599 36.3819859,4.82196056 36.3819859,4.82196056 C37.0107661,6.33188653 36.5820523,6.86489987 36.5820523,6.86489987 C39.1705868,6.61092486 39.3269412,3.33208525 39.3269412,3.33208525 C39.7506113,2.82357827 39.9831815,3.86175681 39.9831815,3.86175681 C40.2325641,8.60763626 37.6260964,9.82571376 37.6260964,9.82571376" id="hjpwixnmzb-Fill-1" fill="#ffffff" mask="url(#hjpwixnmzb-mask-2)"></path></g><g id="hjpwixnmzb-Group-6" transform="translate(48.000000, 0.000000)"><mask id="hjpwixnmzb-mask-4" fill="white"><use xlink:href="#hjpwixnmzb-path-3"></use></mask><g id="hjpwixnmzb-Clip-5"></g><path d="M18.3871742,20.5357357 L13.7117384,12.6017514 C16.5641292,11.9996709 18.2030225,9.95281989 18.2030225,6.88282189 C18.2030225,3.09600832 15.8454342,0.924396894 11.7398049,0.924396894 L2.5691668,0.924396894 L2.21205821,0.924396894 L2.21205821,1.28029833 L2.21205821,8.69296223 L0.357668319,8.69296223 L0,8.69296223 L0,9.04886366 L0,12.4530414 L0,12.8106138 L0.357668319,12.8106138 L2.21205821,12.8106138 L2.21205821,20.7167497 L2.21205821,21.0726512 L2.5691668,21.0726512 L5.98856549,21.0726512 L6.34567408,21.0726512 L6.34567408,20.7167497 L6.34567408,12.8106138 L9.17231729,12.8106138 L13.7285303,20.8888523 L13.8320806,21.0726512 L14.0414201,21.0726512 L18.0804414,21.0726512 L18.7056613,21.0726512 L18.3871742,20.5357357 Z M12.0359028,8.69296223 L6.34567408,8.69296223 L6.34567408,5.04204842 L12.0359028,5.04204842 C13.5331841,5.04204842 14.066608,5.99446072 14.066608,6.88282189 C14.066608,7.75614498 13.5331841,8.69296223 12.0359028,8.69296223 L12.0359028,8.69296223 Z M24.5408604,0.924396894 L24.897969,0.924396894 L24.897969,1.28029833 L24.897969,20.7167497 L24.897969,21.0726512 L24.5408604,21.0726512 L21.1192228,21.0726512 L20.7621142,21.0726512 L20.7621142,20.7167497 L20.7621142,1.28029833 L20.7621142,0.924396894 L21.1192228,0.924396894 L24.5408604,0.924396894 Z M44.1460099,0.924396894 L44.5036782,0.924396894 L44.5036782,1.28029833 L44.5036782,21.1177655 L44.5036782,22 L43.889653,21.3656154 L32.5623701,9.68380519 L32.5623701,20.7167497 L32.5623701,21.0726512 L32.2052615,21.0726512 L28.7836239,21.0726512 L28.4259555,21.0726512 L28.4259555,20.7167497 L28.4259555,0.879282627 L28.4259555,-0.000167089876 L29.0411003,0.631432644 L40.3695026,12.3137999 L40.3695026,1.28029833 L40.3695026,0.924396894 L40.727171,0.924396894 L44.1460099,0.924396894 Z M56.9196386,0.52338119 C51.1460099,0.52338119 46.6239405,5.12615033 46.6239405,10.9976886 C46.6239405,16.8714547 51.1460099,21.4736669 56.9196386,21.4736669 C62.6921478,21.4736669 67.2170158,16.8714547 67.2170158,10.9976886 C67.2170158,5.12615033 62.6921478,0.52338119 56.9196386,0.52338119 L56.9196386,0.52338119 Z M56.9196386,17.3560154 C53.6765553,17.3560154 50.9361107,14.4436388 50.9361107,10.9976886 C50.9361107,7.55006747 53.6765553,4.64103272 56.9196386,4.64103272 C60.1649608,4.64103272 62.9054054,7.55006747 62.9054054,10.9976886 C62.9054054,14.4436388 60.1649608,17.3560154 56.9196386,17.3560154 L56.9196386,17.3560154 Z M83.6859907,20.5357357 L84,21.0726512 L83.3753398,21.0726512 L79.3060931,21.0726512 L79.0922757,21.0726512 L78.9909643,20.8838396 L75.7277307,14.8557938 L72.2428434,20.8949789 L72.1404126,21.0726512 L71.9321925,21.0726512 L68.1002719,21.0726512 L67.4778506,21.0726512 L67.7929794,20.5357357 L73.3796578,10.9976886 L67.7929794,1.46131236 L67.4778506,0.924396894 L68.1002719,0.924396894 L72.1695186,0.924396894 L72.3822165,0.924396894 L72.4818487,1.11153756 L75.747881,7.14125424 L79.2316488,1.10206913 L79.3340796,0.924396894 L79.5406205,0.924396894 L83.3753398,0.924396894 L84,0.924396894 L83.6859907,1.46131236 L78.0981929,10.9976886 L83.6859907,20.5357357 Z" id="hjpwixnmzb-Fill-4" fill="#ffffff" mask="url(#hjpwixnmzb-mask-4)"></path></g></g></svg>