<svg role="img" viewBox="0 0 406 32" aria-labelledby="logo-title" focusable="false" xmlns="http://www.w3.org/2000/svg">
  <g fill="#ffffff">
    <path d="M24.358 31.534h-16v-0.478l5.015-2.149v-27.224c-2.388 0-2.388 0-4.537 0s-3.343 0.478-4.537 1.672c-0.955 0.955-2.866 3.821-3.821 5.731h-0.478l1.433-8.836h30.567l1.433 8.836-0.478 0.239c-0.955-2.149-3.104-5.015-4.060-5.97-1.194-1.194-2.388-1.433-4.537-1.433s-1.91 0-4.537 0c0 2.866 0 27.224 0 27.224l4.537 1.91c0 0 0 0.478 0 0.478z"></path>
    <path d="M66.149 31.534h-27.701v-0.478l4.537-1.91v-26.507l-4.060-1.433v-0.478h25.075l2.866 7.403-0.478 0.239c-2.388-2.866-5.015-5.254-6.925-6.209-0.716-0.478-3.104-0.955-6.925-0.955-1.194 0-2.388 0-3.104 0.239 0 0.955-0.239 4.060-0.239 7.881 0 4.298 0 5.731 0 6.209 0.478 0 3.104 0 4.537-0.239 3.582-0.716 4.776-3.343 5.493-6.448h0.478v14.806h-0.478c-0.478-1.91-1.91-4.776-2.866-5.731-0.955-0.716-2.149-1.433-3.821-1.433s-1.194 0-3.104 0c0 0.716 0 2.388 0 4.060 0 1.433 0 4.060 0 5.015 0 1.91 0.239 3.582 0.716 4.299s2.627 1.194 4.776 1.194c0.955 0 2.388 0 3.582-0.239 3.582-0.478 6.448-2.866 9.313-7.881l0.478 0.239-2.149 8.358z"></path>
    <path d="M102.209 11.235c-1.672-5.254-6.209-10.507-11.463-10.507-7.403 0-11.224 7.881-11.224 15.522 0 8.358 4.299 14.806 11.463 14.806 5.493 0 10.269-5.493 11.224-10.269h0.478v10.269c0 0-5.731 0.955-12.657 0.955-10.985 0-17.672-6.448-17.672-15.761 0-1.91 0.478-5.254 2.627-8.597 2.388-3.821 7.164-7.403 14.806-7.403 6.925 0 13.134 0.955 13.134 0.955v10.030h-0.716z"></path>
    <path d="M130.627 31.534v-0.478l4.537-1.672c0 0 0-11.94 0-13.134h-14.806v13.134l3.821 1.672v0.478h-14.806v-0.478l4.299-1.91c0 0 0-10.030 0-13.373v-8.358c0-1.91 0-4.776 0-4.776l-3.821-1.433v-0.478h14.806v0.478l-4.060 1.672c0 0 0 11.463 0 12.657h14.806c0-3.582 0-9.552 0-9.552v-2.866l-4.537-1.91v-0.478h14.806v0.478l-4.060 2.149v11.94c0 4.060 0 10.746 0 10.746v3.582l4.060 1.91v0.478h-15.045v-0.478z"></path>
    <path d="M166.687 32.011c-8.836 0-16.478-6.448-16.478-15.761 0-9.791 7.881-15.761 16.955-15.761 10.030 0 16 7.403 16 15.761 0 8.836-7.642 15.761-16.478 15.761zM166.687 0.966c-6.687 0-9.313 7.881-9.313 15.284 0 7.881 3.104 14.806 9.552 14.806 6.209 0 9.313-8.119 9.313-15.284 0-6.687-3.104-14.806-9.552-14.806z"></path>
    <path d="M293.731 30.817c-2.149 0.716-5.254 0.955-7.881 0.955h-16v-0.478l4.537-1.91c0 0 0-10.030 0-13.134 0-3.343 0-8.358 0-8.358v-4.776l-4.060-1.672v-0.478h16c2.149 0 4.298 0.239 6.209 0.955 3.104 0.955 5.254 3.343 5.254 6.687 0 3.821-2.866 6.209-6.687 6.925v0.239c4.298 0.478 8.597 3.104 8.597 7.642-0.478 3.821-3.343 6.448-5.97 7.403zM287.522 2.16c-0.955-0.478-2.388-0.955-4.060-0.955-0.955 0-1.91 0.239-2.388 0.239-0.239 0.716-0.239 0.955-0.239 2.866-0.239 4.060 0 10.269 0 10.746 1.672 0 2.627 0 3.343 0 4.298-0.239 6.448-3.104 6.448-7.164 0.239-2.388-1.194-4.776-3.104-5.731zM288 16.728c-1.194-0.478-2.149-0.478-3.343-0.478h-3.582c0 3.582 0 7.403 0 9.313 0 2.149 0 3.582 0.716 4.299 0.478 0.716 1.194 1.194 2.866 1.194 1.433 0 3.104-0.239 4.776-0.955 2.149-1.194 3.104-3.343 3.104-6.209 0-3.582-1.91-6.209-4.537-7.164z"></path>
    <path d="M352.955 32.011c-8.836 0-16.478-6.448-16.478-15.761 0-9.791 7.881-15.761 16.955-15.761 10.030 0 16 7.403 16 15.761 0 8.836-7.642 15.761-16.478 15.761zM352.955 0.966c-6.687 0-9.313 7.881-9.313 15.284 0 7.881 3.104 14.806 9.552 14.806 6.209 0 9.313-8.119 9.313-15.284-0.239-6.687-3.104-14.806-9.552-14.806z"></path>
    <path d="M333.373 22.22c-1.433 3.343-3.104 6.925-7.642 8.119-1.91 0.478-4.298 0.716-5.254 0.716-2.388 0-4.537-0.478-5.015-1.194s-0.478-2.627-0.478-4.537 0-5.97 0-9.791c0-4.299 0-12.418 0-12.418l4.776-1.91v-0.478h-15.761v0.478l4.537 1.91v12.896c0 3.104 0 13.134 0 13.134l-4.776 1.91v0.478h28.657l1.672-9.313c0 0-0.716 0-0.716 0z"></path>
    <path d="M405.493 11.235c-1.672-5.254-6.209-10.507-11.463-10.507-7.403 0-11.224 7.881-11.224 15.522 0 8.358 4.298 14.806 11.463 14.806 5.493 0 10.269-5.493 11.224-10.269h0.478l-0.239 10.030c0 0-5.731 0.955-12.657 0.955-10.985 0-17.672-6.448-17.672-15.761 0-1.91 0.478-5.254 2.627-8.597 2.388-3.821 7.164-7.403 14.806-7.403 6.925 0 13.134 0.955 13.134 0.955v10.269h-0.478z"></path>
    <path d="M192.239 13.862h72.358v4.537h-72.358v-4.537z"></path>
  </g>
</svg>